{
  "accessors": [
    {
      "bufferView": 2,
      "componentType": 5126,
      "count": 1831,
      "max": [
        53.181098937988281,
        166.89421081542969,
        45.920551300048828
      ],
      "min": [
        -53.181098937988281,
        -171.74691772460938,
        -0.10500100255012512
      ],
      "type": "VEC3"
    },
    {
      "bufferView": 2,
      "byteOffset": 21972,
      "componentType": 5126,
      "count": 1831,
      "max": [
        1,
        1,
        1
      ],
      "min": [
        -0.99999964237213135,
        -1,
        -0.99999970197677612
      ],
      "type": "VEC3"
    },
    {
      "bufferView": 3,
      "componentType": 5126,
      "count": 1831,
      "max": [
        1,
        1,
        1,
        1
      ],
      "min": [
        -1,
        -0.99998897314071655,
        -1,
        -1
      ],
      "type": "VEC4"
    },
    {
      "bufferView": 1,
      "componentType": 5126,
      "count": 1831,
      "max": [
        0.9956049919128418,
        0.99782001972198486
      ],
      "min": [
        0.0047800000756978989,
        0.0019529999699443579
      ],
      "type": "VEC2"
    },
    {
      "bufferView": 0,
      "componentType": 5125,
      "count": 5640,
      "max": [
        1830
      ],
      "min": [
        0
      ],
      "type": "SCALAR"
    }
  ],
  "asset": {
    "extras": {
      "author": "o0ozexo0o (https://sketchfab.com/dadndan0091)",
      "license": "CC-BY-4.0 (http://creativecommons.org/licenses/by/4.0/)",
      "source": "https://sketchfab.com/3d-models/wooden-boat-55118b23a5494e4b81eed831b9f8c871",
      "title": "Wooden Boat"
    },
    "generator": "Sketchfab-5.98.0",
    "version": "2.0"
  },
  "bufferViews": [
    {
      "buffer": 0,
      "byteLength": 22560,
      "byteOffset": 0,
      "name": "floatBufferViews",
      "target": 34963
    },
    {
      "buffer": 0,
      "byteLength": 14648,
      "byteOffset": 22560,
      "byteStride": 8,
      "name": "floatBufferViews",
      "target": 34962
    },
    {
      "buffer": 0,
      "byteLength": 43944,
      "byteOffset": 37208,
      "byteStride": 12,
      "name": "floatBufferViews",
      "target": 34962
    },
    {
      "buffer": 0,
      "byteLength": 29296,
      "byteOffset": 81152,
      "byteStride": 16,
      "name": "floatBufferViews",
      "target": 34962
    }
  ],
  "buffers": [
    {
      "byteLength": 110448,
      "uri": "scene.bin"
    }
  ],
  "images": [
    {
      "uri": "textures/IND_WoodenBoat_01_SM_baseColor.png"
    },
    {
      "uri": "textures/IND_WoodenBoat_01_SM_metallicRoughness.png"
    },
    {
      "uri": "textures/IND_WoodenBoat_01_SM_normal.png"
    }
  ],
  "materials": [
    {
      "doubleSided": true,
      "name": "IND_WoodenBoat_01_SM",
      "normalTexture": {
        "index": 2,
        "scale": 1,
        "texCoord": 0
      },
      "pbrMetallicRoughness": {
        "baseColorFactor": [
          1,
          1,
          1,
          1
        ],
        "baseColorTexture": {
          "index": 0,
          "texCoord": 0
        },
        "metallicFactor": 1,
        "metallicRoughnessTexture": {
          "index": 1,
          "texCoord": 0
        },
        "roughnessFactor": 0.59999999999999998
      }
    }
  ],
  "meshes": [
    {
      "primitives": [
        {
          "attributes": {
            "NORMAL": 1,
            "POSITION": 0,
            "TANGENT": 2,
            "TEXCOORD_0": 3
          },
          "indices": 4,
          "material": 0,
          "mode": 4
        }
      ]
    }
  ],
  "nodes": [
    {
      "children": [
        1
      ],
      "name": "RootNode (gltf orientation matrix)",
      "rotation": [
        -0.70710678118654746,
        -0,
        -0,
        0.70710678118654757
      ]
    },
    {
      "children": [
        2
      ],
      "name": "RootNode (model correction matrix)"
    },
    {
      "children": [
        3
      ],
      "name": "5dbf7b5f5aff4a91921fe860cce83eae.obj.cleaner.materialmerger.gles"
    },
    {
      "mesh": 0,
      "name": ""
    }
  ],
  "samplers": [
    {
      "magFilter": 9729,
      "minFilter": 9987,
      "wrapS": 10497,
      "wrapT": 10497
    }
  ],
  "scene": 0,
  "scenes": [
    {
      "name": "OSG_Scene",
      "nodes": [
        0
      ]
    }
  ],
  "textures": [
    {
      "sampler": 0,
      "source": 0
    },
    {
      "sampler": 0,
      "source": 1
    },
    {
      "sampler": 0,
      "source": 2
    }
  ]
}

